<?xml version="1.0" encoding="iso-8859-1"?>
<!-- Uploaded to: SVG Repo, www.svgrepo.com, Generator: SVG Repo Mixer Tools -->
<!DOCTYPE svg PUBLIC "-//W3C//DTD SVG 1.1//EN" "http://www.w3.org/Graphics/SVG/1.1/DTD/svg11.dtd">
<svg fill="#000000" version="1.1" id="Capa_1" xmlns="http://www.w3.org/2000/svg" xmlns:xlink="http://www.w3.org/1999/xlink" 
	 viewBox="0 0 421.021 421.021" xml:space="preserve">
<g>
	<rect x="178.902" y="110.08" width="116.533" height="15"/>
	<rect x="178.902" y="147.596" width="116.533" height="15"/>
	<rect x="178.902" y="222.628" width="116.533" height="15"/>
	<rect x="177.862" y="297.661" width="116.533" height="15"/>
	<rect x="177.862" y="260.145" width="116.533" height="15"/>
	<rect x="177.862" y="185.112" width="116.533" height="15"/>
	<rect x="178.902" y="335.177" width="116.533" height="15"/>
	<path d="M285.325,27.235V0h-149.63v27.235H57.156v393.786h306.709V27.235H285.325z M285.325,89.063V75.978h31.43v296.302H104.266
		V75.978h31.43v13.085H285.325z M150.695,15h119.63v59.063h-119.63V15z M348.865,406.021H72.156V42.235h63.539v18.742h-46.43
		v326.302h242.489V60.978h-46.43V42.235h63.54V406.021z"/>
	<rect x="174.047" y="37.031" width="72.928" height="15"/>
	<polygon points="112.97,129.99 137.365,154.386 169.539,122.212 158.932,111.606 137.365,133.172 123.577,119.384 	"/>
	<polygon points="137.365,228.672 123.577,214.884 112.97,225.49 137.365,249.886 169.539,217.712 158.932,207.106 	"/>
	<polygon points="156.104,297.289 141.254,312.138 126.405,297.289 115.799,307.895 130.648,322.745 115.799,337.594 126.405,348.2 
		141.254,333.351 156.104,348.2 166.71,337.594 151.861,322.745 166.71,307.895 	"/>
</g>
</svg>