<?xml version="1.0" encoding="utf-8"?><!-- Uploaded to: SVG Repo, www.svgrepo.com, Generator: SVG Repo Mixer Tools -->
<svg width="800px" height="800px" viewBox="0 0 24 24" id="Layer_1" data-name="Layer 1" xmlns="http://www.w3.org/2000/svg"><defs><style>.cls-1{fill:none;stroke:#020202;stroke-miterlimit:10;stroke-width:1.91px;}</style></defs><path class="cls-1" d="M5.32,14.86,3.41,17.73,1.5,14.86V3.41A1.9,1.9,0,0,1,3.41,1.5h0A1.91,1.91,0,0,1,5.32,3.41Z"/><path class="cls-1" d="M20.59,22.5H8.18a1.92,1.92,0,0,1-1.91-1.91V18.68H18.68v1.91A1.92,1.92,0,0,0,20.59,22.5Z"/><path class="cls-1" d="M22.5,1.5V20.59a1.91,1.91,0,0,1-3.82,0V18.68H10.09V1.5Z"/><line class="cls-1" x1="12.95" y1="6.27" x2="19.64" y2="6.27"/><line class="cls-1" x1="12.95" y1="10.09" x2="19.64" y2="10.09"/><line class="cls-1" x1="12.95" y1="13.91" x2="19.64" y2="13.91"/></svg>